<?xml version="1.0" encoding="UTF-8"?>
<svg width="96px" height="96px" viewBox="0 0 96 96" version="1.1" xmlns="http://www.w3.org/2000/svg">
    <!-- Generator: Sketch 58 (84663) - https://sketch.com -->
    <title>icon/upload_32</title>
    <desc>Created with Sketch.</desc>
    <g id="icon/upload_32" stroke="none" stroke-width="1" fill="none" fill-rule="evenodd">
        <path d="M48,18 C49.2426407,18 50.25,19.0073593 50.25,20.25 L50.25,20.25 L50.25,45.75 L75.75,45.75 C76.940864,45.75 77.9156449,46.6751616 77.9948092,47.8459512 L78,48 C78,49.2426407 76.9926407,50.25 75.75,50.25 L75.75,50.25 L50.25,50.25 L50.25,75.75 C50.25,76.940864 49.3248384,77.9156449 48.1540488,77.9948092 L48,78 C46.7573593,78 45.75,76.9926407 45.75,75.75 L45.75,75.75 L45.75,50.25 L20.25,50.25 C19.059136,50.25 18.0843551,49.3248384 18.0051908,48.1540488 L18,48 C18,46.7573593 19.0073593,45.75 20.25,45.75 L20.25,45.75 L45.75,45.749 L45.75,20.25 C45.75,19.059136 46.6751616,18.0843551 47.8459512,18.0051908 Z" id="形状结合" fill="#999999" fill-rule="nonzero"></path>
    </g>
</svg>
